<svg width="50" height="51" viewBox="0 0 50 51" fill="none" xmlns="http://www.w3.org/2000/svg">
<path fill-rule="evenodd" clip-rule="evenodd" d="M38 4.54197H12C7.85779 4.54197 4.50001 7.93114 4.50001 12.1119V38.3544C4.50001 42.5352 7.85779 45.9243 12 45.9243H38C42.1422 45.9243 45.5 42.5352 45.5 38.3544V12.1119C45.5 7.93114 42.1422 4.54197 38 4.54197ZM12 0C5.37276 0 0 5.42271 0 12.1119V38.3544C0 45.0436 5.37276 50.4663 12 50.4663H38C44.6273 50.4663 50 45.0436 50 38.3544V12.1119C50 5.42271 44.6273 0 38 0H12Z" fill="white"/>
</svg>
