<svg width="280" height="280" viewBox="0 0 280 280" fill="none" xmlns="http://www.w3.org/2000/svg">
<path d="M68.9231 186.462H210.462V248H68.9231V186.462Z" fill="white"/>
<path d="M215.385 199.385C215.385 179.147 207.41 159.737 193.215 145.427C179.02 131.116 159.767 123.077 139.692 123.077C119.617 123.077 100.365 131.116 86.1698 145.427C71.9747 159.737 64 179.147 64 199.385L139.692 199.385H215.385Z" fill="white"/>
<path fill-rule="evenodd" clip-rule="evenodd" d="M140 218.462C183.333 218.462 218.462 183.333 218.462 140C218.462 96.6669 183.333 61.5385 140 61.5385C96.6669 61.5385 61.5385 96.6669 61.5385 140C61.5385 183.333 96.6669 218.462 140 218.462ZM140 280C217.32 280 280 217.32 280 140C280 62.6801 217.32 0 140 0C62.6801 0 0 62.6801 0 140C0 217.32 62.6801 280 140 280Z" fill="white"/>
</svg>
