<svg width="219" height="47" viewBox="0 0 219 47" fill="none" xmlns="http://www.w3.org/2000/svg">
<path d="M0 46.9693H7.87082V28.0555H28.6097V46.9693H36.5429V0H28.6097V21.0574H7.87082V0H0V46.9693ZM99.3103 12.6093C95.188 12.6093 91.9398 13.9962 90.1906 17.7159V12.9875H83.1322V46.9693H90.6278V27.7403C90.6278 22.4444 93.7508 19.4182 98.3735 19.4182H102.434V12.6093H99.3103ZM106.856 8.51122H114.352V0H106.856V8.51122ZM106.856 46.9693H114.352V12.9875H106.856V46.9693ZM118.696 46.9693H146.306V40.1603H128.815L146.244 19.166V12.9875H119.508V19.7965H136.374L118.696 40.7908V46.9693ZM206.32 12.231C202.134 12.231 198.636 13.9332 196.762 17.0855V12.9875H189.704V46.9693H197.199V26.7946C197.199 22.1922 200.073 19.229 204.383 19.229C208.631 19.229 211.504 22.1922 211.504 26.7946V46.9693H219V24.9032C219 17.4638 213.815 12.231 206.32 12.231Z" fill="white"/>
</svg>
