<svg width="142" height="35" viewBox="0 0 142 35" fill="none" xmlns="http://www.w3.org/2000/svg">
<path fill-rule="evenodd" clip-rule="evenodd" d="M16.9402 26.6807C22.1836 26.6807 26.4342 22.3904 26.4342 17.0982C26.4342 11.8059 22.1836 7.51569 16.9402 7.51569C11.6969 7.51569 7.44625 11.8059 7.44625 17.0982C7.44625 22.3904 11.6969 26.6807 16.9402 26.6807ZM16.9402 34.1964C26.2961 34.1964 33.8804 26.5413 33.8804 17.0982C33.8804 7.6551 26.2961 0 16.9402 0C7.58438 0 0 7.6551 0 17.0982C0 26.5413 7.58438 34.1964 16.9402 34.1964ZM125.06 26.6807C130.303 26.6807 134.554 22.3904 134.554 17.0982C134.554 11.8059 130.303 7.51569 125.06 7.51569C119.816 7.51569 115.566 11.8059 115.566 17.0982C115.566 22.3904 119.816 26.6807 125.06 26.6807ZM125.06 34.1964C134.415 34.1964 142 26.5413 142 17.0982C142 7.6551 134.415 0 125.06 0C115.704 0 108.12 7.6551 108.12 17.0982C108.12 26.5413 115.704 34.1964 125.06 34.1964Z" fill="white"/>
</svg>
